<?xml version="1.0" encoding="utf-8"?>
<!-- Generator: Adobe Illustrator 23.0.1, SVG Export Plug-In . SVG Version: 6.00 Build 0)  -->
<svg version="1.1" id="Layer_1" xmlns="http://www.w3.org/2000/svg" xmlns:xlink="http://www.w3.org/1999/xlink" x="0px" y="0px"
	 viewBox="0 0 512 512" style="enable-background:new 0 0 512 512;" xml:space="preserve">
<style type="text/css">
	.st0{fill:#010101;}
</style>
<title>01</title>
<g>
	<path class="st0" d="M256,6C118.2,6,6,118.2,6,256s112.2,250,250,250s250-112.2,250-250S393.8,6,256,6z M256,484.3
		C130.1,484.3,27.7,381.9,27.7,256S130.1,27.7,256,27.7S484.3,130.1,484.3,256S381.9,484.3,256,484.3z"/>
	<path class="st0" d="M329.8,232l-19.5,19.5V125.6c0-30-24.3-54.3-54.4-54.3c-30,0-54.3,24.3-54.3,54.3v125.9L182.2,232
		c-18.6-18.6-51.1-18.6-69.7,0c-19.3,19.3-19.3,50.5,0,69.7L233,422.2c12.7,12.7,33.4,12.7,46.1,0l120.5-120.5
		c19.3-19.3,19.3-50.5,0-69.7C380.9,213.4,348.5,213.4,329.8,232z M384.2,286.4C384.2,286.4,384.2,286.4,384.2,286.4L384.2,286.4
		L263.7,406.9c-4.2,4.2-11.1,4.2-15.4,0c0,0,0,0,0,0L127.8,286.4c-10.8-10.8-10.8-28.2,0-39c10.8-10.8,28.2-10.8,39,0l38,38
		c4.2,4.2,11.1,4.3,15.4,0c2-2,3.2-4.8,3.2-7.7V125.6c0-18,14.6-32.6,32.6-32.6s32.6,14.6,32.6,32.6v152.2c0,6,4.9,10.9,10.8,10.9
		c2.9,0,5.7-1.1,7.7-3.2l38-38c10.4-10.4,28.6-10.4,39,0C395,258.2,395,275.6,384.2,286.4z"/>
</g>
</svg>
