<?xml version="1.0" encoding="utf-8"?>
<!-- Generator: Adobe Illustrator 23.0.1, SVG Export Plug-In . SVG Version: 6.00 Build 0)  -->
<svg version="1.1" id="Layer_1" xmlns="http://www.w3.org/2000/svg" xmlns:xlink="http://www.w3.org/1999/xlink" x="0px" y="0px"
	 viewBox="0 0 512 512" style="enable-background:new 0 0 512 512;" xml:space="preserve">
<style type="text/css">
	.st0{fill:#010101;}
</style>
<title>01</title>
<g>
	<path class="st0" d="M256,6h-0.2c0,0-0.1,0-0.1,0c-5.9,0.1-10.7,4.9-10.7,10.9c0.1,6,5,10.9,11,10.9c0,0,0,0,0,0
		c6,0,10.9-4.9,10.9-10.9S262.1,6,256,6z"/>
	<path class="st0" d="M266.9,60.3c0-6-4.9-10.9-10.9-10.9h-0.2c0,0-0.1,0-0.1,0c-5.9,0.1-10.7,4.9-10.7,10.9c0.1,6,5,10.9,11,10.9
		C262,71.2,266.9,66.3,266.9,60.3z"/>
	<polygon class="st0" points="256,71.2 256,71.2 256,71.2 	"/>
	<path class="st0" d="M256,93h-0.2c0,0-0.1,0-0.1,0c-5.9,0-10.7,4.9-10.7,10.8c0.1,6,5,10.9,11,10.9v0c6,0,10.9-4.9,10.9-10.9
		C266.9,97.9,262.1,93,256,93z"/>
	<path class="st0" d="M266.9,147.3c0-6-4.9-10.9-10.9-10.9h-0.2c0,0-0.1,0-0.1,0c-5.9,0.1-10.7,4.9-10.7,10.9c0.1,6,5,10.9,11,10.9
		C262,158.2,266.9,153.3,266.9,147.3z"/>
	<path class="st0" d="M256,158.2C256,158.2,256,158.2,256,158.2C256,158.2,256,158.2,256,158.2L256,158.2z"/>
	<path class="st0" d="M256,201.6c6,0,10.9-4.9,10.9-10.9c0-6-4.9-10.9-10.9-10.9h-0.2c0,0-0.1,0-0.1,0c-5.9,0.1-10.7,4.9-10.7,10.9
		C245.1,196.8,250,201.6,256,201.6z"/>
	<path class="st0" d="M256,201.7C256,201.7,256,201.6,256,201.7C256,201.6,256,201.7,256,201.7L256,201.7z"/>
	<path class="st0" d="M256,245.1C256,245.1,256,245.1,256,245.1C256,245.1,256,245.1,256,245.1L256,245.1z"/>
	<path class="st0" d="M256,245.1c6,0,10.9-4.9,10.9-10.9c0-6-4.9-10.9-10.9-10.9h-0.2c0,0-0.1,0-0.1,0c-5.9,0.1-10.7,4.9-10.7,10.9
		C245.1,240.3,250,245.1,256,245.1z"/>
	<path class="st0" d="M256,288.6C256,288.6,256,288.6,256,288.6C256,288.6,256,288.6,256,288.6L256,288.6z"/>
	<path class="st0" d="M256,288.6c6,0,10.8-4.9,10.8-10.9c0-6-4.9-10.9-10.9-10.9h-0.2c0,0-0.1,0-0.1,0c-5.9,0.1-10.7,4.9-10.7,10.9
		C245.1,283.8,250,288.6,256,288.6z"/>
	<path class="st0" d="M212.6,71.2c6,0,10.9-4.9,10.9-10.9c0-6-4.9-10.9-10.9-10.9h-0.2c0,0-0.1,0-0.1,0c-5.9,0.1-10.7,4.9-10.7,10.9
		C201.7,66.4,206.5,71.2,212.6,71.2z"/>
	<polygon class="st0" points="212.6,71.2 212.6,71.2 212.6,71.2 	"/>
	<path class="st0" d="M212.6,93h-0.2c0,0,0,0-0.1,0c-5.9,0-10.7,4.9-10.7,10.8c0.1,6,5,10.9,11,10.9v0c6,0,10.9-4.9,10.9-10.9
		C223.4,97.9,218.6,93,212.6,93z"/>
	<polygon class="st0" points="212.6,158.2 212.6,158.2 212.6,158.2 	"/>
	<path class="st0" d="M212.6,136.4h-0.2c0,0,0,0-0.1,0c-6,0-10.7,4.9-10.7,10.9c0.1,6,5,10.9,11,10.9c6,0,10.9-4.9,10.9-10.9
		C223.4,141.3,218.6,136.4,212.6,136.4z"/>
	<path class="st0" d="M212.6,179.9h-0.2c0,0-0.1,0-0.1,0c-5.9,0.1-10.7,4.9-10.7,10.9c0.1,6,5,10.9,11,10.9c6,0,10.9-4.9,10.9-10.9
		C223.4,184.8,218.6,179.9,212.6,179.9z"/>
	<polygon class="st0" points="212.6,201.7 212.6,201.6 212.6,201.7 	"/>
	<path class="st0" d="M212.6,223.4h-0.2c0,0-0.1,0-0.1,0c-5.9,0.1-10.7,4.9-10.7,10.9c0.1,6,5,10.9,11,10.9c6,0,10.9-4.9,10.9-10.9
		C223.4,228.3,218.6,223.4,212.6,223.4z"/>
	<polygon class="st0" points="212.6,245.1 212.6,245.1 212.6,245.1 	"/>
	<path class="st0" d="M169.1,93h-0.2c0,0,0,0-0.1,0c-5.9,0-10.7,4.9-10.7,10.8c0.1,6,5,10.9,11,10.9v0c6,0,10.9-4.9,10.9-10.9
		C180,97.9,175.1,93,169.1,93z"/>
	<polygon class="st0" points="169.1,158.2 169.1,158.2 169.1,158.2 	"/>
	<path class="st0" d="M169.1,136.4h-0.2c0,0,0,0-0.1,0c-6,0-10.7,4.9-10.7,10.9c0.1,6,5,10.9,11,10.9c6,0,10.9-4.9,10.9-10.9
		C180,141.3,175.1,136.4,169.1,136.4z"/>
	<polygon class="st0" points="169.1,201.7 169.1,201.6 169.1,201.7 	"/>
	<path class="st0" d="M169.1,179.9h-0.2c0,0-0.1,0-0.1,0c-5.9,0.1-10.7,4.9-10.7,10.9c0.1,6,5,10.9,11,10.9c6,0,10.9-4.9,10.9-10.9
		C180,184.8,175.1,179.9,169.1,179.9z"/>
	<polygon class="st0" points="169.1,245.1 169.1,245.1 169.1,245.1 	"/>
	<path class="st0" d="M169.1,223.4h-0.2c0,0-0.1,0-0.1,0c-5.9,0.1-10.7,4.9-10.7,10.9c0.1,6,5,10.9,11,10.9c6,0,10.9-4.9,10.9-10.9
		C180,228.3,175.1,223.4,169.1,223.4z"/>
	<path class="st0" d="M125.6,136.4h-0.2c0,0-0.1,0-0.1,0c-6,0-10.7,4.9-10.7,10.9c0.1,6,5,10.9,11,10.9c6,0,10.9-4.9,10.9-10.9
		C136.5,141.3,131.6,136.4,125.6,136.4z"/>
	<polygon class="st0" points="125.6,158.2 125.6,158.2 125.6,158.2 	"/>
	<path class="st0" d="M125.6,179.9h-0.2c0,0-0.1,0-0.1,0c-6,0-10.7,4.9-10.7,10.9c0.1,6,5,10.9,11,10.9c6,0,10.9-4.9,10.9-10.9
		C136.5,184.8,131.6,179.9,125.6,179.9z"/>
	<polygon class="st0" points="125.6,201.7 125.6,201.6 125.6,201.7 	"/>
	<polygon class="st0" points="125.6,245.1 125.6,245.1 125.6,245.1 	"/>
	<path class="st0" d="M125.6,223.4h-0.2c0,0-0.1,0-0.1,0c-6,0-10.7,4.9-10.7,10.9c0.1,6,5,10.9,11,10.9c6,0,10.9-4.9,10.9-10.9
		C136.5,228.3,131.6,223.4,125.6,223.4z"/>
	<polygon class="st0" points="82.1,201.7 82.1,201.6 82.1,201.7 	"/>
	<path class="st0" d="M82.1,179.9h-0.2c0,0-0.1,0-0.1,0c-6,0-10.7,4.9-10.7,10.9c0.1,6,5,10.9,11,10.9c6,0,10.9-4.9,10.9-10.9
		C93,184.8,88.1,179.9,82.1,179.9z"/>
	<path class="st0" d="M82.1,223.4h-0.2c0,0-0.1,0-0.1,0c-6,0-10.7,4.9-10.7,10.9c0.1,6,5,10.9,11,10.9c6,0,10.9-4.9,10.9-10.9
		C93,228.3,88.1,223.4,82.1,223.4z"/>
	<polygon class="st0" points="82.1,245.1 82.1,245.1 82.1,245.1 	"/>
	<path class="st0" d="M38.6,223.4h-0.2c0,0-0.1,0-0.1,0c-5.9,0.1-10.7,4.9-10.7,10.9c0.1,6,5,10.9,11,10.9c6,0,10.9-4.9,10.9-10.9
		C49.5,228.3,44.6,223.4,38.6,223.4z"/>
	<path class="st0" d="M38.7,245.1C38.7,245.1,38.7,245.1,38.7,245.1C38.6,245.1,38.6,245.1,38.7,245.1L38.7,245.1z"/>
	<polygon class="st0" points="299.5,71.2 299.5,71.2 299.5,71.2 	"/>
	<path class="st0" d="M299.5,71.2c6,0,10.9-4.9,10.9-10.9c0-6-4.9-10.9-10.9-10.9h-0.2c0,0-0.1,0-0.1,0c-5.9,0.1-10.7,4.9-10.7,10.9
		C288.6,66.4,293.5,71.2,299.5,71.2z"/>
	<path class="st0" d="M299.5,93h-0.2c0,0-0.1,0-0.1,0c-5.9,0-10.7,4.9-10.7,10.8c0.1,6,5,10.9,11,10.9v0c6,0,10.9-4.9,10.9-10.9
		C310.4,97.9,305.5,93,299.5,93z"/>
	<path class="st0" d="M299.5,158.2C299.5,158.2,299.5,158.2,299.5,158.2C299.5,158.2,299.5,158.2,299.5,158.2L299.5,158.2z"/>
	<path class="st0" d="M299.5,136.4h-0.2c0,0-0.1,0-0.1,0c-5.9,0.1-10.7,4.9-10.7,10.9c0.1,6,5,10.9,11,10.9c6,0,10.9-4.9,10.9-10.9
		C310.4,141.3,305.5,136.4,299.5,136.4z"/>
	<path class="st0" d="M299.5,201.7C299.5,201.7,299.5,201.6,299.5,201.7C299.5,201.6,299.5,201.7,299.5,201.7L299.5,201.7z"/>
	<path class="st0" d="M299.5,179.9h-0.2c0,0-0.1,0-0.1,0c-5.9,0.1-10.7,4.9-10.7,10.9c0.1,6,5,10.9,11,10.9c6,0,10.9-4.9,10.9-10.9
		C310.4,184.8,305.5,179.9,299.5,179.9z"/>
	<path class="st0" d="M299.5,245.1C299.5,245.1,299.5,245.1,299.5,245.1C299.5,245.1,299.5,245.1,299.5,245.1L299.5,245.1z"/>
	<path class="st0" d="M299.5,223.4h-0.2c0,0-0.1,0-0.1,0c-5.9,0.1-10.7,4.9-10.7,10.9c0.1,6,5,10.9,11,10.9c6,0,10.9-4.9,10.9-10.9
		C310.4,228.3,305.5,223.4,299.5,223.4z"/>
	<path class="st0" d="M343,114.7L343,114.7c6,0,10.9-4.8,10.9-10.8c0-6-4.9-10.9-10.9-10.9h-0.2c0,0,0,0-0.1,0
		c-6,0-10.8,4.9-10.7,10.8C332.1,109.9,337,114.7,343,114.7z"/>
	<path class="st0" d="M343,136.4h-0.2c0,0-0.1,0-0.1,0c-6,0-10.7,4.9-10.7,10.9c0.1,6,5,10.9,11,10.9c6,0,10.9-4.9,10.9-10.9
		C353.9,141.3,349,136.4,343,136.4z"/>
	<path class="st0" d="M343,179.9h-0.2c0,0-0.1,0-0.1,0c-6,0-10.7,4.9-10.7,10.9c0.1,6,5,10.9,11,10.9c6,0,10.9-4.9,10.9-10.9
		S349,179.9,343,179.9z"/>
	<path class="st0" d="M343,223.4h-0.2c0,0-0.1,0-0.1,0c-6,0-10.7,4.9-10.7,10.9c0.1,6,5,10.9,11,10.9v0c6,0,10.9-4.9,10.9-10.9
		C353.9,228.3,349,223.4,343,223.4z"/>
	<path class="st0" d="M386.5,136.4h-0.2c0,0-0.1,0-0.1,0c-6,0-10.7,4.9-10.7,10.9c0.1,6,5,10.9,11,10.9c6,0,10.9-4.9,10.9-10.9
		C397.3,141.3,392.5,136.4,386.5,136.4z"/>
	<polygon class="st0" points="386.5,158.2 386.5,158.2 386.5,158.2 	"/>
	<path class="st0" d="M386.5,179.9h-0.2c0,0-0.1,0-0.1,0c-6,0-10.7,4.9-10.7,10.9c0.1,6,5,10.9,11,10.9c6,0,10.9-4.9,10.9-10.9
		C397.3,184.8,392.5,179.9,386.5,179.9z"/>
	<polygon class="st0" points="386.5,201.7 386.5,201.6 386.5,201.7 	"/>
	<path class="st0" d="M386.5,223.4h-0.2c0,0-0.1,0-0.1,0c-6,0-10.7,4.9-10.7,10.9c0.1,6,5,10.9,11,10.9c6,0,10.9-4.9,10.9-10.9
		C397.3,228.3,392.5,223.4,386.5,223.4z"/>
	<polygon class="st0" points="386.5,245.1 386.5,245.1 386.5,245.1 	"/>
	<path class="st0" d="M430,179.9h-0.2c0,0-0.1,0-0.1,0c-5.9,0.1-10.7,4.9-10.7,10.9c0.1,6,5,10.9,11,10.9c6,0,10.9-4.9,10.9-10.9
		S436,179.9,430,179.9z"/>
	<path class="st0" d="M430,223.4h-0.2c0,0-0.1,0-0.1,0c-5.9,0.1-10.7,4.9-10.7,10.9c0.1,6,5,10.9,11,10.9v0c6,0,10.9-4.9,10.9-10.9
		C440.9,228.3,436,223.4,430,223.4z"/>
	<path class="st0" d="M473.4,245.1C473.4,245.1,473.4,245.1,473.4,245.1C473.4,245.1,473.4,245.1,473.4,245.1L473.4,245.1z"/>
	<path class="st0" d="M484.3,234.3c0-6-4.9-10.9-10.9-10.9h-0.2c0,0-0.1,0-0.1,0c-5.9,0.1-10.7,4.9-10.7,10.9c0.1,6,5,10.9,11,10.9
		C479.4,245.1,484.3,240.3,484.3,234.3z"/>
	<polygon class="st0" points="256,332.1 256,332.1 256,332.1 	"/>
	<path class="st0" d="M256,310.4h-0.2c0,0-0.1,0-0.1,0c-5.9,0.1-10.7,4.9-10.7,10.9c0.1,6,5,10.9,11,10.9c6,0,10.9-4.9,10.9-10.9
		C266.9,315.2,262,310.3,256,310.4z"/>
	<path class="st0" d="M256,375.6C256,375.6,256,375.6,256,375.6C256,375.6,256,375.6,256,375.6L256,375.6z"/>
	<path class="st0" d="M266.9,364.7c0-6-4.9-10.9-10.9-10.9h-0.2c0,0-0.1,0-0.1,0c-5.9,0.1-10.7,4.9-10.7,10.9c0.1,6,5,10.9,11,10.9
		C262,375.6,266.9,370.7,266.9,364.7z"/>
	<path class="st0" d="M256,419C256,419,256,419,256,419C256,419,256,419,256,419L256,419z"/>
	<path class="st0" d="M256,419c6,0,10.8-4.9,10.8-10.9c0-6-4.9-10.9-10.9-10.9h-0.2c0,0-0.1,0-0.1,0c-5.9,0.1-10.7,4.9-10.7,10.9
		C245.1,414.1,250,419,256,419z"/>
	<path class="st0" d="M256,440.8h-0.2c0,0-0.1,0-0.1,0c-5.9,0.1-10.7,4.9-10.7,10.9c0.1,6,5,10.9,11,10.9c6,0,10.9-4.9,10.9-10.9
		C266.9,445.6,262,440.8,256,440.8z"/>
	<polygon class="st0" points="256,462.5 256,462.5 256,462.5 	"/>
	<path class="st0" d="M256,484.3h-0.2c0,0-0.1,0-0.1,0c-5.9,0.1-10.7,4.9-10.7,10.9c0.1,6,5,10.9,11,10.9c6,0,10.9-4.9,10.9-10.9
		C266.9,489.1,262,484.3,256,484.3z"/>
	<polygon class="st0" points="256,506 256,506 256,506 	"/>
	<path class="st0" d="M299.5,288.6C299.5,288.6,299.5,288.6,299.5,288.6C299.5,288.6,299.5,288.6,299.5,288.6L299.5,288.6z"/>
	<path class="st0" d="M299.5,266.9h-0.2c0,0-0.1,0-0.1,0c-5.9,0.1-10.7,4.9-10.7,10.9c0.1,6,5,10.9,11,10.9c6,0,10.8-4.9,10.8-10.9
		C310.4,271.7,305.5,266.9,299.5,266.9z"/>
	<path class="st0" d="M299.5,332.1C299.5,332.1,299.5,332.1,299.5,332.1C299.5,332.1,299.5,332.1,299.5,332.1L299.5,332.1z"/>
	<path class="st0" d="M299.5,310.4h-0.2c0,0-0.1,0-0.1,0c-5.9,0.1-10.7,4.9-10.7,10.9c0.1,6,5,10.9,11,10.9c6,0,10.8-4.9,10.8-10.9
		C310.4,315.2,305.5,310.4,299.5,310.4z"/>
	<path class="st0" d="M299.5,375.6C299.5,375.6,299.5,375.6,299.5,375.6C299.5,375.6,299.5,375.6,299.5,375.6L299.5,375.6z"/>
	<path class="st0" d="M299.5,353.8h-0.2c0,0-0.1,0-0.1,0c-5.9,0.1-10.7,4.9-10.7,10.9c0.1,6,5,10.9,11,10.9c6,0,10.8-4.9,10.8-10.9
		C310.4,358.7,305.5,353.8,299.5,353.8z"/>
	<path class="st0" d="M299.5,419C299.5,419,299.5,419,299.5,419C299.5,419,299.5,419,299.5,419L299.5,419z"/>
	<path class="st0" d="M299.5,397.3h-0.2c0,0-0.1,0-0.1,0c-5.9,0.1-10.7,4.9-10.7,10.9c0.1,6,5,10.9,11,10.9c6,0,10.8-4.9,10.8-10.9
		C310.4,402.1,305.5,397.3,299.5,397.3z"/>
	<path class="st0" d="M299.5,440.8h-0.2c0,0-0.1,0-0.1,0c-5.9,0.1-10.7,4.9-10.7,10.9c0.1,6,5,10.9,11,10.9c6,0,10.8-4.9,10.8-10.9
		C310.4,445.7,305.5,440.8,299.5,440.8z"/>
	<path class="st0" d="M299.5,462.5C299.5,462.5,299.5,462.5,299.5,462.5C299.5,462.5,299.5,462.5,299.5,462.5L299.5,462.5z"/>
	<path class="st0" d="M299.5,506C299.5,506,299.5,506,299.5,506C299.5,506,299.5,506,299.5,506L299.5,506z"/>
	<path class="st0" d="M299.5,484.3h-0.2c0,0-0.1,0-0.1,0c-5.9,0.1-10.7,4.9-10.7,10.9c0.1,6,5,10.9,11,10.9c6,0,10.8-4.9,10.8-10.9
		C310.4,489.1,305.5,484.3,299.5,484.3z"/>
	<polygon class="st0" points="212.6,288.6 212.6,288.6 212.6,288.6 	"/>
	<path class="st0" d="M212.6,266.9h-0.2c0,0-0.1,0-0.1,0c-5.9,0.1-10.7,4.9-10.7,10.9c0.1,6,5,10.9,11,10.9c6,0,10.8-4.9,10.8-10.9
		C223.4,271.7,218.6,266.9,212.6,266.9z"/>
	<polygon class="st0" points="212.6,332.1 212.6,332.1 212.6,332.1 	"/>
	<path class="st0" d="M212.6,310.4h-0.2c0,0-0.1,0-0.1,0c-5.9,0.1-10.7,4.9-10.7,10.9c0.1,6,5,10.9,11,10.9c6,0,10.8-4.9,10.8-10.9
		C223.4,315.2,218.6,310.4,212.6,310.4z"/>
	<polygon class="st0" points="212.6,375.6 212.6,375.6 212.6,375.6 	"/>
	<path class="st0" d="M212.6,353.8h-0.2c0,0-0.1,0-0.1,0c-5.9,0.1-10.7,4.9-10.7,10.9c0.1,6,5,10.9,11,10.9c6,0,10.8-4.9,10.8-10.9
		C223.4,358.7,218.6,353.8,212.6,353.8z"/>
	<polygon class="st0" points="212.6,419 212.6,419 212.6,419 	"/>
	<path class="st0" d="M212.6,397.3h-0.2c0,0,0,0-0.1,0c-6,0-10.7,4.9-10.7,10.9c0.1,6,5,10.9,11,10.9c6,0,10.8-4.9,10.8-10.9
		C223.4,402.1,218.6,397.3,212.6,397.3z"/>
	<path class="st0" d="M212.6,440.8h-0.2c0,0-0.1,0-0.1,0c-5.9,0.1-10.7,4.9-10.7,10.9c0.1,6,5,10.9,11,10.9c6,0,10.8-4.9,10.8-10.9
		C223.4,445.7,218.6,440.8,212.6,440.8z"/>
	<polygon class="st0" points="212.6,462.5 212.6,462.5 212.6,462.5 	"/>
	<path class="st0" d="M212.6,484.3h-0.2c0,0-0.1,0-0.1,0c-5.9,0.1-10.7,4.9-10.7,10.9c0.1,6,5,10.9,11,10.9c6,0,10.8-4.9,10.8-10.9
		C223.4,489.1,218.6,484.3,212.6,484.3z"/>
	<polygon class="st0" points="212.6,506 212.6,506 212.6,506 	"/>
</g>
</svg>
