<?xml version="1.0" encoding="utf-8"?>
<!-- Generator: Adobe Illustrator 23.0.1, SVG Export Plug-In . SVG Version: 6.00 Build 0)  -->
<svg version="1.1" id="Layer_1" xmlns="http://www.w3.org/2000/svg" xmlns:xlink="http://www.w3.org/1999/xlink" x="0px" y="0px"
	 viewBox="0 0 512 512" style="enable-background:new 0 0 512 512;" xml:space="preserve">
<style type="text/css">
	.st0{fill:#010101;}
</style>
<title>01</title>
<g>
	<path class="st0" d="M256,6C118.2,6,6,118.2,6,256s112.2,250,250,250s250-112.2,250-250S393.8,6,256,6z M256,484.3
		C130.1,484.3,27.7,381.9,27.7,256S130.1,27.7,256,27.7S484.3,130.1,484.3,256S381.9,484.3,256,484.3z"/>
	<path class="st0" d="M386.4,201.7H260.5l19.5-19.5c0,0,0,0,0,0c19.2-19.2,19.2-50.5,0-69.7c-18.6-18.6-51.1-18.6-69.7,0L89.8,233
		c-12.7,12.7-12.7,33.4,0,46.1l120.5,120.5c9.2,9.3,21.8,14.5,34.9,14.4c13.1,0,25.6-5.2,34.9-14.4c19.3-19.3,19.3-50.5,0-69.7
		l-19.5-19.5h125.9c30,0,54.3-24.3,54.3-54.3C440.8,226,416.4,201.7,386.4,201.7z M386.4,288.6H234.3c-2.9,0-5.7,1.1-7.7,3.2
		c-4.2,4.2-4.2,11.1,0,15.4l38,38c0,0,0,0,0,0c10.8,10.8,10.7,28.2,0,39c-10.4,10.4-28.6,10.4-39,0L105.1,263.7c0,0,0,0,0,0
		c-4.2-4.2-4.2-11.1,0-15.4l120.5-120.5c5.2-5.2,12.2-8.1,19.5-8.1l0,0.1c7.3,0,14.2,2.9,19.4,8c10.8,10.7,10.8,28.2,0.1,39
		l-38,38.1c-2,2-3.2,4.8-3.2,7.7c0,6,4.9,10.9,10.9,10.8h152.2c18,0,32.6,14.6,32.6,32.6S404.4,288.6,386.4,288.6z"/>
</g>
</svg>
