<?xml version="1.0" encoding="utf-8"?>
<!-- Generator: Adobe Illustrator 23.0.1, SVG Export Plug-In . SVG Version: 6.00 Build 0)  -->
<svg version="1.1" id="Layer_1" xmlns="http://www.w3.org/2000/svg" xmlns:xlink="http://www.w3.org/1999/xlink" x="0px" y="0px"
	 viewBox="0 0 512 512" style="enable-background:new 0 0 512 512;" xml:space="preserve">
<style type="text/css">
	.st0{fill:#010101;}
</style>
<title>01</title>
<g>
	<path class="st0" d="M17,245.1h-0.2c0,0-0.1,0-0.1,0C10.7,245.2,5.9,250.1,6,256c0.1,6,5,10.9,11,10.9c6,0,10.9-4.9,10.9-10.9
		C27.9,250,23,245.1,17,245.1z"/>
	<path class="st0" d="M60.4,266.9c6,0,10.8-4.9,10.8-10.9c0-6-4.9-10.9-10.9-10.9h-0.2c0,0-0.1,0-0.1,0c-5.9,0.1-10.7,4.9-10.7,10.9
		C49.5,262,54.4,266.9,60.4,266.9z"/>
	<path class="st0" d="M60.4,266.9C60.4,266.9,60.4,266.9,60.4,266.9C60.4,266.9,60.4,266.9,60.4,266.9L60.4,266.9z"/>
	<path class="st0" d="M103.9,266.9c6,0,10.8-4.9,10.8-10.9c0-6-4.9-10.9-10.9-10.9h-0.2c0,0-0.1,0-0.1,0
		c-5.9,0.1-10.7,4.9-10.7,10.9C93,262,97.9,266.9,103.9,266.9z"/>
	<path class="st0" d="M103.9,266.9C103.9,266.9,103.9,266.9,103.9,266.9C103.9,266.9,103.9,266.9,103.9,266.9L103.9,266.9z"/>
	<path class="st0" d="M147.4,266.9C147.4,266.9,147.4,266.9,147.4,266.9C147.4,266.9,147.4,266.9,147.4,266.9L147.4,266.9z"/>
	<path class="st0" d="M147.4,266.9c6,0,10.8-4.9,10.8-10.9c0-6-4.9-10.9-10.9-10.9h-0.2c0,0-0.1,0-0.1,0
		c-5.9,0.1-10.7,4.9-10.7,10.9C136.5,262,141.3,266.9,147.4,266.9z"/>
	<polygon class="st0" points="190.9,266.9 190.8,266.9 190.8,266.9 	"/>
	<path class="st0" d="M190.8,266.9c6,0,10.9-4.9,10.9-10.9c0-6-4.9-10.9-10.9-10.9h-0.2c0,0-0.1,0-0.1,0
		c-5.9,0.1-10.7,4.9-10.7,10.9C179.9,262,184.8,266.9,190.8,266.9z"/>
	<path class="st0" d="M234.3,266.9C234.3,266.9,234.3,266.9,234.3,266.9C234.3,266.9,234.3,266.9,234.3,266.9L234.3,266.9z"/>
	<path class="st0" d="M234.3,266.9c6,0,10.8-4.9,10.8-10.9c0-6-4.9-10.9-10.9-10.9h-0.2c0,0-0.1,0-0.1,0
		c-5.9,0.1-10.7,4.9-10.7,10.9C223.4,262,228.3,266.9,234.3,266.9z"/>
	<polygon class="st0" points="277.8,266.9 277.8,266.9 277.8,266.9 	"/>
	<path class="st0" d="M277.8,245.1h-0.2c0,0-0.1,0-0.1,0c-6,0-10.7,4.9-10.7,10.9c0.1,6,5,10.9,11,10.9c6,0,10.8-4.9,10.8-10.9
		C288.6,250,283.8,245.1,277.8,245.1z"/>
	<path class="st0" d="M60.4,288.6h-0.2c0,0-0.1,0-0.1,0c-5.9,0.1-10.7,4.9-10.7,10.9c0.1,6,5,10.9,11,10.9c0,0,0,0,0,0
		c6,0,10.9-4.9,10.9-10.9C71.3,293.5,66.4,288.6,60.4,288.6z"/>
	<path class="st0" d="M103.9,288.6h-0.2c0,0-0.1,0-0.1,0c-5.9,0.1-10.7,4.9-10.7,10.9c0.1,6,5,10.9,11,10.9c0,0,0,0,0,0
		c6,0,10.9-4.9,10.9-10.9C114.8,293.5,109.9,288.6,103.9,288.6z"/>
	<path class="st0" d="M147.4,310.3c6,0,10.9-4.9,10.9-10.9c0-6-4.9-10.9-10.9-10.9h-0.2c0,0-0.1,0-0.1,0
		c-5.9,0.1-10.7,4.9-10.7,10.9C136.5,305.5,141.4,310.3,147.4,310.3z"/>
	<polygon class="st0" points="147.4,310.3 147.4,310.3 147.4,310.3 	"/>
	<path class="st0" d="M190.8,310.3c6,0,10.9-4.9,10.9-10.9c0-6-4.9-10.9-10.9-10.9h-0.2c0,0-0.1,0-0.1,0
		c-5.9,0.1-10.7,4.9-10.7,10.9C179.9,305.5,184.8,310.3,190.8,310.3z"/>
	<polygon class="st0" points="190.9,310.3 190.8,310.3 190.8,310.3 	"/>
	<polygon class="st0" points="234.3,310.3 234.3,310.3 234.3,310.3 	"/>
	<path class="st0" d="M234.3,310.3c6,0,10.9-4.9,10.9-10.9c0-6-4.9-10.9-10.9-10.9h-0.2c0,0-0.1,0-0.1,0
		c-5.9,0.1-10.7,4.9-10.7,10.9C223.4,305.5,228.3,310.3,234.3,310.3z"/>
	<path class="st0" d="M103.9,332.1h-0.2c0,0-0.1,0-0.1,0c-5.9,0.1-10.7,4.9-10.7,10.9c0.1,6,5,10.9,11,10.9c6,0,10.9-4.9,10.9-10.9
		C114.8,336.9,109.9,332.1,103.9,332.1z"/>
	<polygon class="st0" points="103.9,353.8 103.9,353.8 103.9,353.8 	"/>
	<path class="st0" d="M147.4,353.8C147.4,353.8,147.4,353.8,147.4,353.8C147.4,353.8,147.4,353.8,147.4,353.8L147.4,353.8z"/>
	<path class="st0" d="M147.4,353.8c6,0,10.8-4.9,10.8-10.9c0-6-4.9-10.9-10.9-10.9h-0.2c0,0-0.1,0-0.1,0
		c-5.9,0.1-10.7,4.9-10.7,10.9C136.5,349,141.3,353.8,147.4,353.8z"/>
	<path class="st0" d="M190.8,353.8c6,0,10.8-4.9,10.8-10.9c0-6-4.9-10.9-10.9-10.9h-0.2c0,0-0.1,0-0.1,0
		c-5.9,0.1-10.7,4.9-10.7,10.9C179.9,349,184.8,353.8,190.8,353.8z"/>
	<path class="st0" d="M190.9,353.8C190.8,353.8,190.8,353.8,190.9,353.8C190.8,353.8,190.8,353.8,190.9,353.8L190.9,353.8z"/>
	<path class="st0" d="M234.3,353.8C234.3,353.8,234.3,353.8,234.3,353.8C234.3,353.8,234.3,353.8,234.3,353.8L234.3,353.8z"/>
	<path class="st0" d="M234.3,353.8c6,0,10.8-4.9,10.8-10.9c0-6-4.9-10.9-10.9-10.9h-0.2c0,0-0.1,0-0.1,0
		c-5.9,0.1-10.7,4.9-10.7,10.9C223.4,349,228.3,353.8,234.3,353.8z"/>
	<path class="st0" d="M147.4,375.5h-0.2c0,0-0.1,0-0.1,0c-5.9,0.1-10.7,4.9-10.7,10.9c0.1,6,5,10.9,11,10.9c0.2,0,0.4,0,0.6,0
		c6-0.2,10.7-5.2,10.5-11.2C158.4,380.1,153.4,375.4,147.4,375.5z"/>
	<path class="st0" d="M190.9,397.3c0.2,0,0.4,0,0.6,0c6-0.2,10.7-5.2,10.5-11.2c-0.2-6-5.2-10.7-11.2-10.5h-0.2c0,0-0.1,0-0.1,0
		c-5.9,0.1-10.7,4.9-10.7,10.9C179.9,392.4,184.8,397.3,190.9,397.3z"/>
	<path class="st0" d="M234.3,397.3c0.2,0,0.4,0,0.6,0c6-0.2,10.7-5.2,10.5-11.2c-0.2-6-5.2-10.7-11.2-10.5h-0.2c0,0-0.1,0-0.1,0
		c-5.9,0.1-10.7,4.9-10.7,10.9C223.4,392.4,228.3,397.3,234.3,397.3z"/>
	<path class="st0" d="M190.9,419h-0.2c0,0-0.1,0-0.1,0c-5.9,0.1-10.7,4.9-10.7,10.9c0.1,6,5,10.9,11,10.9v0c0.2,0,0.4,0,0.7,0
		c6-0.2,10.7-5.2,10.5-11.2C201.9,423.5,196.9,418.8,190.9,419z"/>
	<path class="st0" d="M234.3,419h-0.2c0,0-0.1,0-0.1,0c-5.9,0.1-10.7,4.9-10.7,10.9c0.1,6,5,10.9,11,10.9v0c0.2,0,0.4,0,0.7,0
		c6-0.2,10.7-5.2,10.5-11.2C245.3,423.5,240.3,418.8,234.3,419z"/>
	<path class="st0" d="M234.3,462.5h-0.2c0,0-0.1,0-0.1,0c-5.9,0.1-10.7,4.9-10.7,10.9c0.1,6,5,10.9,11,10.9c0.2,0,0.4,0,0.6,0
		c6-0.2,10.7-5.2,10.5-11.2C245.3,467,240.3,462.3,234.3,462.5z"/>
	<path class="st0" d="M60.4,223.4C60.4,223.4,60.4,223.4,60.4,223.4C60.4,223.4,60.4,223.4,60.4,223.4L60.4,223.4z"/>
	<path class="st0" d="M60.4,223.4c6,0,10.9-4.9,10.9-10.9c0-6-4.9-10.9-10.9-10.9h-0.2c0,0-0.1,0-0.1,0c-5.9,0.1-10.7,4.9-10.7,10.9
		C49.5,218.5,54.4,223.4,60.4,223.4z"/>
	<path class="st0" d="M103.9,223.4C103.9,223.4,103.9,223.4,103.9,223.4C103.9,223.4,103.9,223.4,103.9,223.4L103.9,223.4z"/>
	<path class="st0" d="M103.9,223.4c6,0,10.9-4.9,10.9-10.9c0-6-4.9-10.9-10.9-10.9h-0.2c0,0-0.1,0-0.1,0
		c-5.9,0.1-10.7,4.9-10.7,10.9C93,218.5,97.9,223.4,103.9,223.4z"/>
	<path class="st0" d="M147.4,223.4C147.4,223.4,147.4,223.4,147.4,223.4C147.4,223.4,147.4,223.4,147.4,223.4L147.4,223.4z"/>
	<path class="st0" d="M147.4,223.4c6,0,10.9-4.9,10.9-10.9c0-6-4.9-10.9-10.9-10.9h-0.2c0,0-0.1,0-0.1,0
		c-5.9,0.1-10.7,4.9-10.7,10.9C136.5,218.5,141.3,223.4,147.4,223.4z"/>
	<path class="st0" d="M190.9,223.4C190.8,223.4,190.8,223.4,190.9,223.4C190.8,223.4,190.8,223.4,190.9,223.4L190.9,223.4z"/>
	<path class="st0" d="M190.8,223.4c6,0,10.9-4.9,10.9-10.9c0-6-4.9-10.9-10.9-10.9h-0.2c0,0-0.1,0-0.1,0
		c-5.9,0.1-10.7,4.9-10.7,10.9C179.9,218.5,184.8,223.4,190.8,223.4z"/>
	<path class="st0" d="M234.3,223.4c6,0,10.9-4.9,10.9-10.9c0-6-4.9-10.9-10.9-10.9h-0.2c0,0-0.1,0-0.1,0
		c-5.9,0.1-10.7,4.9-10.7,10.9C223.4,218.5,228.3,223.4,234.3,223.4z"/>
	<path class="st0" d="M234.3,223.4C234.3,223.4,234.3,223.4,234.3,223.4C234.3,223.4,234.3,223.4,234.3,223.4L234.3,223.4z"/>
	<path class="st0" d="M103.9,179.9c6,0,10.9-4.9,10.9-10.9c0-6-4.9-10.9-10.9-10.9h-0.2c0,0-0.1,0-0.1,0
		c-5.9,0.1-10.7,4.9-10.7,10.9C93,175.1,97.9,179.9,103.9,179.9z"/>
	<path class="st0" d="M103.9,179.9C103.9,179.9,103.9,179.9,103.9,179.9C103.9,179.9,103.9,179.9,103.9,179.9L103.9,179.9z"/>
	<path class="st0" d="M147.4,179.9C147.4,179.9,147.4,179.9,147.4,179.9C147.4,179.9,147.4,179.9,147.4,179.9L147.4,179.9z"/>
	<path class="st0" d="M158.2,169.1c0-6-4.9-10.9-10.9-10.9h-0.2c0,0-0.1,0-0.1,0c-5.9,0.1-10.7,4.9-10.7,10.9c0.1,6,5,10.9,11,10.9
		C153.4,179.9,158.2,175.1,158.2,169.1z"/>
	<path class="st0" d="M190.8,179.9c6,0,10.9-4.9,10.9-10.9c0-6-4.9-10.9-10.9-10.9h-0.2c0,0-0.1,0-0.1,0
		c-5.9,0.1-10.7,4.9-10.7,10.9C179.9,175.1,184.8,179.9,190.8,179.9z"/>
	<path class="st0" d="M190.9,179.9C190.8,179.9,190.8,179.9,190.9,179.9C190.8,179.9,190.8,179.9,190.9,179.9L190.9,179.9z"/>
	<path class="st0" d="M234.3,179.9C234.3,179.9,234.3,179.9,234.3,179.9C234.3,179.9,234.3,179.9,234.3,179.9L234.3,179.9z"/>
	<path class="st0" d="M234.3,179.9c6,0,10.9-4.9,10.9-10.9c0-6-4.9-10.9-10.9-10.9h-0.2c0,0-0.1,0-0.1,0
		c-5.9,0.1-10.7,4.9-10.7,10.9C223.4,175.1,228.3,179.9,234.3,179.9z"/>
	<path class="st0" d="M147.4,114.7h-0.2c0,0-0.1,0-0.1,0c-5.9,0-10.7,4.9-10.7,10.9c0.1,6,5,10.9,11,10.9c0.2,0,0.4,0,0.6,0
		c6-0.2,10.7-5.2,10.5-11.2C158.4,119.3,153.4,114.5,147.4,114.7z"/>
	<path class="st0" d="M190.9,136.5c0.2,0,0.4,0,0.6,0c6-0.2,10.7-5.2,10.5-11.2c-0.2-6-5.2-10.7-11.2-10.5h-0.2c0,0-0.1,0-0.1,0
		c-5.9,0-10.7,4.9-10.7,10.9C179.9,131.6,184.8,136.5,190.9,136.5z"/>
	<path class="st0" d="M234.3,136.5c0.2,0,0.4,0,0.6,0c6-0.2,10.7-5.2,10.5-11.2c-0.2-6-5.2-10.7-11.2-10.5h-0.2c0,0-0.1,0-0.1,0
		c-5.9,0-10.7,4.9-10.7,10.9C223.4,131.6,228.3,136.5,234.3,136.5z"/>
	<path class="st0" d="M190.9,93c0.2,0,0.4,0,0.6,0c6-0.2,10.7-5.2,10.5-11.2c-0.2-6-5.2-10.7-11.2-10.5h-0.2c0,0-0.1,0-0.1,0
		c-5.9,0-10.7,4.9-10.7,10.9C179.9,88.2,184.8,93,190.9,93z"/>
	<path class="st0" d="M234.3,93c0.2,0,0.4,0,0.6,0c6-0.2,10.7-5.2,10.5-11.2s-5.2-10.7-11.2-10.5h-0.2c0,0-0.1,0-0.1,0
		c-5.9,0-10.7,4.9-10.7,10.9C223.4,88.2,228.3,93,234.3,93z"/>
	<path class="st0" d="M234.3,49.5c0.2,0,0.4,0,0.6,0c6-0.2,10.7-5.2,10.5-11.2c-0.2-6-5.2-10.7-11.2-10.5h-0.2c0,0-0.1,0-0.1,0
		c-5.9,0-10.7,4.9-10.7,10.9C223.4,44.7,228.3,49.5,234.3,49.5z"/>
	<path class="st0" d="M321.3,266.9C321.3,266.9,321.2,266.9,321.3,266.9C321.2,266.9,321.2,266.9,321.3,266.9L321.3,266.9z"/>
	<path class="st0" d="M321.2,245.1H321c0,0,0,0-0.1,0c-5.9,0.1-10.7,4.9-10.7,10.9c0.1,6,5,10.9,11,10.9c6,0,10.8-4.9,10.8-10.9
		C332.1,250,327.2,245.1,321.2,245.1z"/>
	<path class="st0" d="M364.7,245.1h-0.2c0,0-0.1,0-0.1,0c-5.9,0.1-10.7,4.9-10.7,10.9c0.1,6,5,10.9,11,10.9c6,0,10.8-4.9,10.8-10.9
		C375.6,250,370.7,245.1,364.7,245.1z"/>
	<polygon class="st0" points="364.7,266.9 364.7,266.9 364.7,266.9 	"/>
	<path class="st0" d="M408.2,245.1H408c0,0-0.1,0-0.1,0c-5.9,0.1-10.7,4.9-10.7,10.9c0.1,6,5,10.9,11,10.9h0c0,0,0,0,0,0
		c6,0,10.9-4.9,10.9-10.9C419.1,250,414.2,245.1,408.2,245.1z"/>
	<path class="st0" d="M451.7,266.9C451.7,266.9,451.6,266.9,451.7,266.9C451.6,266.9,451.6,266.9,451.7,266.9L451.7,266.9z"/>
	<path class="st0" d="M451.6,245.1h-0.2c0,0-0.1,0-0.1,0c-5.9,0.1-10.7,4.9-10.7,10.9c0.1,6,5,10.9,11,10.9c6,0,10.8-4.9,10.8-10.9
		C462.5,250,457.6,245.1,451.6,245.1z"/>
	<path class="st0" d="M495.1,266.9C495.1,266.9,495.1,266.9,495.1,266.9C495.1,266.9,495.1,266.9,495.1,266.9L495.1,266.9z"/>
	<path class="st0" d="M495.1,266.9c6,0,10.8-4.9,10.8-10.9c0-6-4.9-10.9-10.9-10.9h-0.2c0,0-0.1,0-0.1,0
		c-5.9,0.1-10.7,4.9-10.7,10.9C484.2,262,489.1,266.9,495.1,266.9z"/>
	<path class="st0" d="M277.8,201.7h-0.2c0,0-0.1,0-0.1,0c-6,0-10.7,4.9-10.7,10.9c0.1,6,5,10.9,11,10.9c6,0,10.9-4.9,10.9-10.9
		C288.6,206.5,283.8,201.7,277.8,201.7z"/>
	<polygon class="st0" points="277.8,223.4 277.8,223.4 277.8,223.4 	"/>
	<path class="st0" d="M321.3,223.4C321.3,223.4,321.2,223.4,321.3,223.4C321.2,223.4,321.2,223.4,321.3,223.4L321.3,223.4z"/>
	<path class="st0" d="M321.2,201.7H321c0,0,0,0-0.1,0c-5.9,0.1-10.7,4.9-10.7,10.9c0.1,6,5,10.9,11,10.9c6,0,10.9-4.9,10.9-10.9
		C332.1,206.5,327.2,201.7,321.2,201.7z"/>
	<polygon class="st0" points="364.7,223.4 364.7,223.4 364.7,223.4 	"/>
	<path class="st0" d="M364.7,201.7h-0.2c0,0-0.1,0-0.1,0c-5.9,0.1-10.7,4.9-10.7,10.9c0.1,6,5,10.9,11,10.9c6,0,10.9-4.9,10.9-10.9
		C375.6,206.5,370.7,201.7,364.7,201.7z"/>
	<path class="st0" d="M408.2,223.4L408.2,223.4c6,0,10.9-4.9,10.9-10.9s-4.9-10.9-10.9-10.9H408c0,0-0.1,0-0.1,0
		c-5.9,0.1-10.7,4.9-10.7,10.9C397.3,218.6,402.2,223.4,408.2,223.4z"/>
	<path class="st0" d="M451.6,201.7h-0.2c0,0-0.1,0-0.1,0c-5.9,0.1-10.7,4.9-10.7,10.9c0.1,6,5,10.9,11,10.9c6,0,10.9-4.9,10.9-10.9
		C462.5,206.5,457.6,201.7,451.6,201.7z"/>
	<path class="st0" d="M451.7,223.4C451.7,223.4,451.7,223.4,451.7,223.4C451.6,223.4,451.6,223.4,451.7,223.4L451.7,223.4z"/>
	<path class="st0" d="M495.1,223.4c6,0,10.9-4.9,10.9-10.9c0-6-4.9-10.9-10.9-10.9h-0.2c0,0-0.1,0-0.1,0
		c-5.9,0.1-10.7,4.9-10.7,10.9C484.2,218.5,489.1,223.4,495.1,223.4z"/>
	<path class="st0" d="M495.1,223.4C495.1,223.4,495.1,223.4,495.1,223.4C495.1,223.4,495.1,223.4,495.1,223.4L495.1,223.4z"/>
	<polygon class="st0" points="277.8,310.3 277.8,310.3 277.8,310.3 	"/>
	<path class="st0" d="M277.8,288.6h-0.2c0,0-0.1,0-0.1,0c-6,0-10.7,4.9-10.7,10.9c0.1,6,5,10.9,11,10.9c6,0,10.8-4.9,10.8-10.9
		C288.6,293.5,283.8,288.6,277.8,288.6z"/>
	<path class="st0" d="M321.2,288.6H321c0,0,0,0-0.1,0c-5.9,0.1-10.7,4.9-10.7,10.9c0.1,6,5,10.9,11,10.9c6,0,10.8-4.9,10.8-10.9
		C332.1,293.5,327.2,288.6,321.2,288.6z"/>
	<path class="st0" d="M321.3,310.3C321.3,310.3,321.2,310.3,321.3,310.3C321.2,310.3,321.2,310.3,321.3,310.3L321.3,310.3z"/>
	<path class="st0" d="M364.7,288.6h-0.2c0,0-0.1,0-0.1,0c-5.9,0.1-10.7,4.9-10.7,10.9c0.1,6,5,10.9,11,10.9c6,0,10.8-4.9,10.8-10.9
		C375.6,293.5,370.7,288.6,364.7,288.6z"/>
	<polygon class="st0" points="364.7,310.3 364.7,310.3 364.7,310.3 	"/>
	<path class="st0" d="M408.2,288.6H408c0,0-0.1,0-0.1,0c-5.9,0.1-10.7,4.9-10.7,10.9c0.1,6,5,10.9,11,10.9h0c0,0,0,0,0,0
		c6,0,10.9-4.9,10.9-10.9C419.1,293.5,414.2,288.6,408.2,288.6z"/>
	<path class="st0" d="M451.6,288.6h-0.2c0,0-0.1,0-0.1,0c-5.9,0.1-10.7,4.9-10.7,10.9c0.1,6,5,10.9,11,10.9c6,0,10.8-4.9,10.8-10.9
		C462.5,293.5,457.6,288.6,451.6,288.6z"/>
	<path class="st0" d="M451.7,310.3C451.7,310.3,451.6,310.3,451.7,310.3C451.6,310.3,451.6,310.3,451.7,310.3L451.7,310.3z"/>
	<polygon class="st0" points="495.1,310.3 495.1,310.3 495.1,310.3 	"/>
	<path class="st0" d="M506,299.5c0-6-4.9-10.9-10.9-10.9h-0.2c0,0-0.1,0-0.1,0c-5.9,0.1-10.7,4.9-10.7,10.9c0.1,6,5,10.9,11,10.9
		C501.1,310.3,506,305.5,506,299.5z"/>
</g>
</svg>
