<?xml version="1.0" encoding="utf-8"?>
<!-- Generator: Adobe Illustrator 23.0.1, SVG Export Plug-In . SVG Version: 6.00 Build 0)  -->
<svg version="1.1" id="Layer_1" xmlns="http://www.w3.org/2000/svg" xmlns:xlink="http://www.w3.org/1999/xlink" x="0px" y="0px"
	 viewBox="0 0 512 512" style="enable-background:new 0 0 512 512;" xml:space="preserve">
<style type="text/css">
	.st0{fill:#010101;}
</style>
<title>01</title>
<g>
	<path class="st0" d="M256,6C118.2,6,6,118.2,6,256s112.2,250,250,250s250-112.2,250-250S393.8,6,256,6z M256,484.3
		C130.1,484.3,27.7,381.9,27.7,256S130.1,27.7,256,27.7S484.3,130.1,484.3,256S381.9,484.3,256,484.3z"/>
	<path class="st0" d="M422.2,233L301.7,112.5c-18.6-18.6-51.1-18.6-69.7,0c0,0,0,0,0,0c-19.2,19.2-19.2,50.5,0,69.7l19.5,19.5H125.6
		c0,0,0,0,0,0c-30,0-54.3,24.3-54.3,54.4s24.3,54.3,54.4,54.3h125.9L232,329.8c-9.3,9.3-14.5,21.8-14.5,34.9
		c0,27.2,22.1,49.3,49.3,49.3c13.1,0,25.6-5.1,34.9-14.4l120.5-120.5C434.9,266.4,434.9,245.7,422.2,233z M406.9,263.7L286.4,384.2
		c-10.4,10.4-28.6,10.4-39,0c0,0,0,0,0,0c-10.8-10.8-10.7-28.2,0-39l38-38c2-2,3.2-4.8,3.2-7.7c0-6-4.9-10.9-10.9-10.8H125.6
		c-18,0-32.6-14.6-32.6-32.6s14.6-32.6,32.6-32.6l152.2,0c2.9,0,5.7-1.1,7.7-3.2c4.2-4.2,4.2-11.1,0-15.4l-38-38c0,0,0,0,0,0
		c-10.8-10.8-10.7-28.2,0-39c10.4-10.4,28.6-10.4,39,0l120.5,120.5c0,0,0,0,0,0C411.2,252.6,411.2,259.4,406.9,263.7z"/>
</g>
</svg>
