<?xml version="1.0" encoding="utf-8"?>
<!-- Generator: Adobe Illustrator 23.0.1, SVG Export Plug-In . SVG Version: 6.00 Build 0)  -->
<svg version="1.1" id="Layer_1" xmlns="http://www.w3.org/2000/svg" xmlns:xlink="http://www.w3.org/1999/xlink" x="0px" y="0px"
	 viewBox="0 0 512 512" style="enable-background:new 0 0 512 512;" xml:space="preserve">
<style type="text/css">
	.st0{fill:#010101;}
</style>
<title>01</title>
<g>
	<path class="st0" d="M256,6C118.2,6,6,118.2,6,256s112.2,250,250,250s250-112.1,250-250S393.9,6,256,6z M325.3,154.3
		c0,2.1-1.7,3.8-3.8,3.8h-30.1c-7.4,0-13.4,6-13.4,13.4v31.5h42.8c0.1,0,0.2,0,0.3,0c2.1,0.2,3.6,2,3.4,4.1l-3.8,44.4
		c-0.2,2-1.8,3.5-3.8,3.5h-39v147.3c0,2.1-1.7,3.8-3.8,3.8h-53.8c-2.1,0-3.8-1.7-3.8-3.8V257.2v-2.4h-26.9c-2.1,0-3.8-1.7-3.8-3.8
		v-44.4c0,0,0,0,0,0c0-2.1,1.7-3.8,3.8-3.8h26.9v-42.8c0-29.8,24.2-54,54-54h50.8c0,0,0,0,0,0c2.1,0,3.8,1.7,3.8,3.8V154.3z"/>
</g>
</svg>
