<?xml version="1.0" encoding="UTF-8"?>
<!DOCTYPE svg PUBLIC "-//W3C//DTD SVG 1.1//EN" "http://www.w3.org/Graphics/SVG/1.1/DTD/svg11.dtd">
<!-- Creator: CorelDRAW X7 -->
<svg xmlns="http://www.w3.org/2000/svg" xml:space="preserve" width="0.246429in" height="0.246429in" version="1.1" style="shape-rendering:geometricPrecision; text-rendering:geometricPrecision; image-rendering:optimizeQuality; fill-rule:evenodd; clip-rule:evenodd"
viewBox="0 0 246 246"
 xmlns:xlink="http://www.w3.org/1999/xlink">
 <defs>
  <style type="text/css">
   <![CDATA[
    .fil0 {fill:black}
   ]]>
  </style>
 </defs>
 <g id="Layer_x0020_1">
  <metadata id="CorelCorpID_0Corel-Layer"/>
  <path class="fil0" d="M51 0l144 0c28,0 51,23 51,51l0 144c0,28 -23,51 -51,51l-144 0c-28,0 -51,-23 -51,-51l0 -144c0,-28 23,-51 51,-51zm72 60c35,0 63,28 63,63 0,35 -28,63 -63,63 -35,0 -63,-28 -63,-63 0,-35 28,-63 63,-63zm-77 -37c19,0 19,29 0,29 -19,0 -19,-29 0,-29zm77 27c40,0 73,33 73,73 0,40 -33,73 -73,73 -40,0 -73,-33 -73,-73 0,-40 33,-73 73,-73z"/>
 </g>
</svg>
