<?xml version="1.0" encoding="utf-8"?>
<!-- Generator: Adobe Illustrator 22.1.0, SVG Export Plug-In . SVG Version: 6.00 Build 0)  -->
<svg version="1.1" id="Layer_1" xmlns="http://www.w3.org/2000/svg" xmlns:xlink="http://www.w3.org/1999/xlink" x="0px" y="0px"
	 viewBox="0 0 512 512" style="enable-background:new 0 0 512 512;" xml:space="preserve">
<g>
	<path d="M109.3,256.2l4.1,45.7l-4.1,48c-0.2,1.8-1.5,3.1-3.1,3.1s-3-1.3-3-3.1l-3.9-48l3.9-45.7c0-1.5,1.3-3,3-3
		C107.8,253.2,109.1,254.6,109.3,256.2z M124.4,224.1c-2,0-3.3,1.5-3.5,3.5l-3.5,74.3l3.5,48c0.2,2,1.5,3.5,3.5,3.5
		c1.8,0,3.3-1.5,3.3-3.5l4.1-48l-4.1-74.3C127.7,225.7,126.1,224.1,124.4,224.1z M142.3,207.2c-2.2,0-3.7,1.5-3.9,3.7l-3.1,91.4
		l3.1,47.7c0.2,2.2,1.8,3.7,3.9,3.7c2,0,3.7-1.5,3.7-3.7l3.7-47.7l-3.7-91.4C146,208.7,144.3,207.2,142.3,207.2L142.3,207.2z
		 M36.1,275.1c-1,0-1.5,0.8-1.8,1.8l-3.3,25l3.3,24.6c0.2,1,0.8,1.8,1.8,1.8c1,0,1.5-0.8,1.8-1.8l3.9-24.6l-3.9-25
		C37.6,275.9,37,275.1,36.1,275.1L36.1,275.1z M52.7,259.7c-1,0-1.8,0.8-1.8,1.8l-4.5,40.4l4.5,39.5c0,1.2,0.8,2,1.8,2
		s1.8-0.8,2-1.8l5.1-39.7l-5.1-40.4C54.4,260.5,53.6,259.7,52.7,259.7z M70.5,251.7c-1.2,0-2.2,1-2.3,2.3l-4.1,47.9l4.1,46.3
		c0.2,1.2,1.2,2.2,2.3,2.2c1.2,0,2.2-1,2.2-2.2l4.9-46.3L72.6,254C72.6,252.7,71.6,251.7,70.5,251.7L70.5,251.7z M88.2,250.1
		c-1.3,0-2.5,1-2.5,2.5l-4.1,49.2l4.1,47.7c0,1.5,1.2,2.5,2.5,2.5c1.3,0,2.5-1,2.7-2.5l4.5-47.7L91,252.7
		C90.8,251.1,89.6,250.1,88.2,250.1L88.2,250.1z M258,172.1c-0.8-0.6-2-1-3-1c-1.5,0-3,0.6-3.9,1.3c-1.3,1.2-2.2,3-2.3,4.7v0.6
		L246.5,302l1.2,22.9l1.2,22.3c0.2,3.3,3,6,6.3,6s6-2.7,6-6l2.7-45.1l-2.7-124.8C260.9,175.1,259.8,173.1,258,172.1L258,172.1z
		 M239.2,182.9c-1-0.6-2-1-3.1-1c-1.1,0-2.2,0.4-3.1,1c-1.5,1-2.5,2.7-2.5,4.7l-0.2,1.2l-2,113.1c0,0,0,0.2,2.2,46.1v0.2
		c0,1.2,0.4,2.3,1.2,3.3c1.2,1.3,2.7,2.2,4.5,2.2c1.5,0,3-0.8,3.9-1.8c1.2-1,1.8-2.3,1.8-3.9l0.2-4.7l2.2-41.2L242,187.6
		C241.8,185.6,240.8,183.9,239.2,182.9L239.2,182.9z M160.9,198.7c-2.2,0-4.1,2-4.1,4.3l-3.1,98.9l3.1,47.3c0.2,2.3,2,4.1,4.1,4.1
		c2.3,0,4.1-1.8,4.3-4.1l3.5-47.3l-3.5-98.9C165,200.7,163.3,198.7,160.9,198.7L160.9,198.7z M425.8,242.9c-7.6,0-14.8,1.5-21.5,4.3
		c-4.5-49.8-46.3-88.9-97.3-88.9c-12.5,0-24.6,2.3-35.4,6.6c-4.3,1.5-5.5,3.1-5.5,6.5V347c0,3.5,2.7,6,6,6.5h153.5
		c30.5,0,55.3-24.6,55.3-55.1C481.1,267.7,456.2,242.9,425.8,242.9L425.8,242.9z M217.1,200.5c-3,0-5.3,2.3-5.5,5.5l-2.3,96.1
		l2.3,46.1c0.2,3,2.5,5.3,5.5,5.3c3,0,5.3-2.3,5.3-5.3l2.7-46.1l-2.7-96.1C222.2,202.8,220.1,200.5,217.1,200.5L217.1,200.5z
		 M179.5,195c-2.3,0-4.5,2.2-4.5,4.7l-2.7,102.2l2.7,47c0.2,2.5,2.2,4.5,4.5,4.5c2.5,0,4.5-2,4.7-4.5l3.1-47l-3.1-102.2
		C184,197.2,182,195,179.5,195z M198.2,197.4c-2.7,0-4.9,2.2-4.9,4.9l-2.7,99.6l2.7,46.7c0.2,2.7,2.2,4.9,4.9,4.9
		c2.7,0,4.9-2.2,4.9-4.9l3-46.7l-3-99.6C203.1,199.5,201,197.4,198.2,197.4L198.2,197.4z"/>
</g>
</svg>
