<?xml version="1.0" encoding="utf-8"?>
<!-- Generator: Adobe Illustrator 23.0.1, SVG Export Plug-In . SVG Version: 6.00 Build 0)  -->
<svg version="1.1" id="Layer_1" xmlns="http://www.w3.org/2000/svg" xmlns:xlink="http://www.w3.org/1999/xlink" x="0px" y="0px"
	 viewBox="0 0 512 512" style="enable-background:new 0 0 512 512;" xml:space="preserve">
<style type="text/css">
	.st0{fill:#010101;}
</style>
<title>01</title>
<g>
	<path class="st0" d="M298.4,250.5l-67-38.4c-2.9-1.7-5.6,0.4-5.6,3.8v74.8c0,3.3,2.6,5.4,5.5,3.8l66.6-36.5v0.1
		C300.8,256.4,301.3,252.2,298.4,250.5z"/>
	<path class="st0" d="M253.1,2.5C115,2.5,2.6,114.9,2.6,253S115,503.5,253.1,503.5S503.6,391.1,503.6,253S391.2,2.5,253.1,2.5z
		 M403.1,293.2c0,35.5-28.8,64.3-64.3,64.3H171.9c-35.5,0-64.3-28.8-64.3-64.3V215c0-35.5,28.8-64.3,64.3-64.3h166.8c0,0,0,0,0,0
		c35.5,0,64.3,28.8,64.3,64.3V293.2z"/>
</g>
</svg>
