<?xml version="1.0" encoding="utf-8"?>
<!-- Generator: Adobe Illustrator 23.0.1, SVG Export Plug-In . SVG Version: 6.00 Build 0)  -->
<svg version="1.1" id="Layer_1" xmlns="http://www.w3.org/2000/svg" xmlns:xlink="http://www.w3.org/1999/xlink" x="0px" y="0px"
	 viewBox="0 0 512 512" style="enable-background:new 0 0 512 512;" xml:space="preserve">
<style type="text/css">
	.st0{fill-rule:evenodd;clip-rule:evenodd;fill:#1B1B1B;}
</style>
<path class="st0" d="M440.1,364.6c-6.8,15.5-25.1,30-41.6,33.1c-1.8,0.3-45.7,8.3-142.3,8.3h-0.3c-96.6,0-140.5-8-142.3-8.3
	c-16.5-3.1-34.8-17.6-41.7-33.1C71.2,363.1,56,327.8,56,256c0-71.8,15.2-107.1,15.9-108.6c6.8-15.4,25.1-30,41.6-33.1
	c1.8-0.4,45.7-8.3,142.3-8.3c96.9,0,140.8,8,142.6,8.3c16.5,3.1,34.8,17.6,41.6,33.1c0.6,1.5,15.9,36.9,15.9,108.6
	S440.7,363.1,440.1,364.6z M424.8,154.1c-4.6-10.4-18.3-21.3-29.4-23.4c-0.4-0.1-44.5-8-139.3-8c-95.1,0-139.1,8-139.6,8
	c-11.1,2.1-24.9,13-29.4,23.4C87,154.4,72.7,188.2,72.7,256S87,357.6,87.1,357.9c4.6,10.4,18.3,21.3,29.4,23.4
	c0.4,0.1,44.5,8,139.3,8h0.3c94.8,0,138.9-8,139.3-8c11.1-2.1,24.8-13,29.4-23.4c0.1-0.3,14.5-34.1,14.5-101.9
	C439.3,187.7,425,154.4,424.8,154.1z M218.4,329.9c-1.3,0.7-2.7,1.1-4.1,1.1c-1.4,0-2.9-0.4-4.2-1.1c-2.6-1.5-4.2-4.2-4.2-7.2V189.3
	c0-3,1.6-5.7,4.2-7.2c2.6-1.5,5.7-1.5,8.3,0l116.7,66.7c2.6,1.5,4.2,4.2,4.2,7.2s-1.6,5.8-4.2,7.2L218.4,329.9z M222.6,203.7v104.6
	l91.6-52.3L222.6,203.7z"/>
</svg>
