<?xml version="1.0" encoding="utf-8"?>
<!-- Generator: Adobe Illustrator 22.1.0, SVG Export Plug-In . SVG Version: 6.00 Build 0)  -->
<svg version="1.1" id="Layer_1" xmlns="http://www.w3.org/2000/svg" xmlns:xlink="http://www.w3.org/1999/xlink" x="0px" y="0px"
	 viewBox="0 0 512 512" style="enable-background:new 0 0 512 512;" xml:space="preserve">
<g>
	<path d="M91.1,196c0-0.2,0.1-0.3,0.1-0.3l0.2-1.3l-8.3,0c-7.5,0-9.8,0-10,0.2c-0.1,0.1-2.7,9.9-7.3,27.7c-2.2,8.5-4,15.3-4.1,15.1
		s-2.7-9.9-5.9-21.6c-3.2-11.7-5.8-21.2-5.9-21.3c-0.1-0.1-10.2-0.2-18.3-0.1c-1.2,0-1.8-2.3,10.5,37c1.7,5.4,4.3,13.1,5.7,17.1
		c1.6,4.6,2.8,8.1,3.6,11.1c1.4,5.6,1.5,9.1,1.2,13.3c-0.4,4.7-0.4,38.3-0.1,38.8c0.3,0.4,16,0.6,17.5,0.2c0.2-0.1,0.4-0.3,0.5-1.6
		c0.4-1.1,0.4-5.4,0.4-23.4v-23l1-3.2c0.7-2.1,2.3-7.5,3.7-12.1c1.4-4.6,3-10.1,3.7-12.2C85.2,217,90.8,198,91,196.9L91.1,196
		L91.1,196z"/>
	<path d="M179.1,223.9v1.2h-0.2l-0.1,33.1l-0.1,32.1l-2.6,2.6c-2.9,2.9-5.2,4-7.3,3.5c-2.3-0.6-2.2,0.3-2.4-37.6l-0.2-34.9h-16.5
		v1.2h-0.2V263c0,40.6,0,40.6,2.1,44.7c1.6,3.3,4,4.8,8.1,5.4l0,0c5.4,0.7,11.2-1.7,16.6-7l2.3-2.3v3.9c0,3.4,0.1,4,0.7,4.1
		c1,0.3,13.5,0.3,14.9,0l1.1-0.2v-1.2l0.2,0v-86.8L179.1,223.9L179.1,223.9z"/>
	<path d="M137.2,241c-1.6-6.7-4.5-11.2-9.3-14.4c-7.6-4.9-16.3-5.4-24.3-1.5c-5.9,2.9-9.6,7.7-11.6,14.7c-0.2,0.8-0.4,1.5-0.5,2.6
		c-0.5,2.5-0.5,6.2-0.7,23.5c-0.2,26.6,0.1,29.8,3.4,35.8c3.3,5.9,10.1,10.3,17.5,11.2c2.2,0.3,6.7-0.1,9.3-0.9
		c5.9-1.6,11.5-6.3,14-11.6c1.1-2.3,1.7-3.9,2.1-6.8c0.7-4,0.8-10.4,0.8-26.7C137.9,246.2,137.9,244,137.2,241L137.2,241z
		 M118.3,295.3c-1.4,1.1-3.8,1.5-5.8,1.1c-1.5-0.3-3.6-2.7-4.2-4.9c-0.8-2.7-0.8-40.3-0.2-47.7c1.1-3.7,4.2-5.6,7.6-4.7
		c2.7,0.7,4,2.4,4.8,5.9c0.6,2.6,0.6,5.8,0.5,24.8c-0.1,12.6-0.1,18.7-0.5,22C120.2,293.8,119.5,294.4,118.3,295.3L118.3,295.3z"/>
	<path d="M433.9,259.9h8l-0.1-7.2c-0.1-6.6-0.2-7.4-1.1-9.2c-1.4-2.8-3.5-4.1-6.7-4.1c-3.9,0-6.4,1.9-7.6,5.8
		c-0.5,1.7-1,13.1-0.7,14.1C425.9,259.8,427.1,259.9,433.9,259.9z"/>
	<path d="M380.6,243.4c-1.1-2.1-3.1-3.2-5.3-3.1c-1.8,0.1-3.8,0.8-5.7,2.3l-1.4,1.1v52l1.4,1.1c3.2,2.5,6.8,3,9.2,1.3
		c1-0.7,1.6-1.5,2.1-2.9c0.6-1.8,0.7-4.2,0.6-26.1C381.3,246.3,381.3,244.9,380.6,243.4z"/>
	<path d="M479.6,220c-1.6-19.1-2.9-25.3-6.8-33.2c-5.2-10.5-12.7-16.1-23.5-17.3c-8.3-0.9-39.5-2.3-68.3-2.9
		c-50-1.1-132.1,1-142.6,3.7c-4.8,1.2-8.5,3.4-12.3,7.1c-6.6,6.6-10.6,16.1-12.2,29.2c-3.6,29.9-3.7,66-0.2,97
		c1.5,13.3,4.6,22,10.4,29.1c3.6,4.5,9.9,8.2,15.5,9.4c3.9,0.8,23.6,1.9,52.2,2.9c4.3,0.2,15.5,0.4,25.1,0.6
		c19.9,0.3,56.4,0.1,77.2-0.4c14-0.4,39.6-1.4,44.4-1.8c1.3-0.1,4.5-0.3,6.9-0.4c8.3-0.5,13.6-2.2,18.5-6.1
		c6.4-5,11.4-14.3,13.5-25.2c2-10.3,3.3-28.7,3.6-49.6C481.2,244.5,480.9,235.1,479.6,220L479.6,220z M280.6,213.1l-9.3,0.1l-0.4,99
		l-8.1,0.1c-6.2,0.1-8.1,0-8.3-0.4c-0.1-0.3-0.2-22.6-0.3-49.6l-0.1-49.1L236,213v-15.5l53.6,0.2l0.2,15.3L280.6,213.1L280.6,213.1z
		 M337.5,269.9v42.6h-14.7V308c0-3.4-0.1-4.5-0.5-4.5c-0.3,0-1.6,1.1-2.9,2.5c-2.9,2.9-6.3,5.3-9.3,6.4c-6.1,2.3-11.8,0.9-14.3-3.3
		c-2.3-3.9-2.3-4.7-2.3-44.9v-36.9h14.7l0.1,34.7c0.1,34.1,0.1,34.8,0.9,36.2c1.1,1.8,2.7,2.3,5.4,1.6c1.5-0.4,2.6-1.2,5.1-3.7
		l3.2-3.1v-65.7h14.7V269.9L337.5,269.9z M394.8,306.4c-1.3,2.9-4.2,5.7-6.5,6.4c-6.2,1.8-11.1,0.3-16.8-5c-1.8-1.7-3.4-3-3.7-3
		c-0.3,0-0.5,1.3-0.5,3.9v3.9h-14.7V197.5h14.7v18.8c0,10.3,0.1,18.8,0.3,18.8c0.2,0,1.7-1.4,3.4-3c4-3.8,7.3-5.5,11.5-5.8
		c7.5-0.6,12,3.3,14,12.1c0.6,2.7,0.7,5.9,0.7,31.4C397.2,300.7,397.2,300.9,394.8,306.4L394.8,306.4z M456.8,289.3
		c-0.1,3.2-0.5,6.9-0.9,8.2c-2,7.6-7.5,12.9-15.3,15.1c-10.6,3-22.2-1.9-26.9-11.2c-2.6-5.2-2.7-6.3-2.7-31.8
		c0-20.8,0.1-23.3,0.7-26.2c1.9-8,6.5-13.2,14.5-16.1c2.3-0.8,4.7-1.3,7.1-1.3c8.5-0.2,17,4.4,20.5,11.9c2.4,5,2.7,7.2,2.9,21.4
		l0.2,12.7l-31.3,0.2l-0.1,8.6c-0.2,12.1,0.7,15.8,3.9,18c2.7,1.9,7,1.7,9.2-0.3c2.2-1.9,2.8-3.9,3-9.8l0.2-5.2h15.1
		C457.1,283.5,456.8,289.3,456.8,289.3z"/>
</g>
</svg>
