<?xml version="1.0" encoding="utf-8"?>
<!-- Generator: Adobe Illustrator 23.0.1, SVG Export Plug-In . SVG Version: 6.00 Build 0)  -->
<svg version="1.1" id="Layer_1" xmlns="http://www.w3.org/2000/svg" xmlns:xlink="http://www.w3.org/1999/xlink" x="0px" y="0px"
	 viewBox="0 0 512 512" style="enable-background:new 0 0 512 512;" xml:space="preserve">
<style type="text/css">
	.st0{fill:#010101;}
</style>
<title>01</title>
<g>
	<path class="st0" d="M415.9,226.6L263.7,74.2c-4.3-4.1-11.1-4.1-15.4,0L96.1,226.6c-2,2-3.2,4.8-3.2,7.7c0,6,4.9,10.9,10.9,10.8
		h76.1V408c0,0,0,0,0,0c0,6,4.9,10.9,10.9,10.8h130.4c0,0,0,0,0,0c6,0,10.9-4.9,10.9-10.9V245.1h76.1c2.9,0,5.6-1.1,7.7-3.2
		C420.1,237.7,420.1,230.8,415.9,226.6z M321.2,223.4C321.2,223.4,321.2,223.4,321.2,223.4c-6,0-10.9,4.9-10.9,10.9v162.9H201.7
		V234.3c0,0,0,0,0,0c0-6-4.9-10.9-10.9-10.8H130L256,97.3l126,126.1H321.2z"/>
	<path class="st0" d="M256,6C118.2,6,6,118.2,6,256s112.2,250,250,250s250-112.2,250-250S393.8,6,256,6z M256,484.3
		C130.1,484.3,27.7,381.9,27.7,256S130.1,27.7,256,27.7S484.3,130.1,484.3,256S381.9,484.3,256,484.3z"/>
</g>
</svg>
